<svg xmlns="http://www.w3.org/2000/svg" width="23.35" height="21" viewBox="0 0 23.35 21"><path fill="#fff" d="M22.176 3.5a1.168 1.168 0 0 1 1.176 1.176v15.176a1.1 1.1 0 0 1-.342.806 1.133 1.133 0 0 1-.834.342h-21a1.131 1.131 0 0 1-.834-.342A1.1 1.1 0 0 1 0 19.852V4.676A1.168 1.168 0 0 1 1.176 3.5h5.113L7.711.657a1.308 1.308 0 0 1 .438-.479 1.08 1.08 0 0 1 .6-.178h5.852a1.083 1.083 0 0 1 .6.178 1.316 1.316 0 0 1 .438.479L17.061 3.5zm-8.23 13.549a5.938 5.938 0 1 0-2.27.451 5.8 5.8 0 0 0 2.27-.451zm-2.27-8.873a3.5 3.5 0 1 1-2.475 1.025 3.376 3.376 0 0 1 2.475-1.025z"/></svg>