<svg xmlns="http://www.w3.org/2000/svg" width="22.15" height="21.6" viewBox="0 0 22.15 21.6"><path fill="#fff" d="M16.051 0a5.662 5.662 0 0 1 2.406.52 6 6 0 0 1 1.941 1.422 6.654 6.654 0 0 1 1.285 2.1 7.147 7.147 0 0 1 .465 2.6 7.829 7.829 0 0 1-.67 3.226 13.973 13.973 0 0 1-1.914 3.049 37.5 37.5 0 0 1-2.994 3.254q-1.75 1.71-3.883 3.815l-1.613 1.616-1.613-1.586q-2.133-2.133-3.883-3.842a37.2 37.2 0 0 1-2.994-3.254A13.9 13.9 0 0 1 .67 9.871 7.814 7.814 0 0 1 0 6.645a7.127 7.127 0 0 1 .465-2.6 6.636 6.636 0 0 1 1.285-2.1A5.992 5.992 0 0 1 3.691.523a5.656 5.656 0 0 1 2.406-.52 5.941 5.941 0 0 1 2.749.684 2.265 2.265 0 0 0 4.457 0 5.928 5.928 0 0 1 2.748-.684z"/></svg>