<svg xmlns="http://www.w3.org/2000/svg" width="35.27" height="20.64" viewBox="0 0 35.27 20.64"><path fill="#fff" d="M0 20.639a47.582 47.582 0 0 1 35.269 0zm20.076-5.259l-1.578-.812a2.119 2.119 0 0 0-1.729 0l-1.576.812a2.117 2.117 0 0 1-1.728 0l-1.577-.812a2.118 2.118 0 0 0-1.728 0l-1.578.812a1.511 1.511 0 0 1-.25.1 8.2 8.2 0 0 1-2.919-6.087c0-5.186 5.471-9.39 12.221-9.39s12.221 4.2 12.221 9.39a8.208 8.208 0 0 1-2.919 6.087 1.479 1.479 0 0 1-.25-.1l-1.578-.812a2.118 2.118 0 0 0-1.728 0l-1.577.812a2.117 2.117 0 0 1-1.728 0z"/></svg>