<svg xmlns="http://www.w3.org/2000/svg" width="19" height="19" viewBox="0 0 19 19"><g opacity=".25"><path d="M1 10.001a9 9 0 0 1 9-9v1.8a7.209 7.209 0 0 0-7.2 7.2 7.212 7.212 0 0 0 7.2 7.2 7.216 7.216 0 0 0 7.2-7.2 7.213 7.213 0 0 0-7.2-7.2v-1.8a9 9 0 0 1 9 9 9 9 0 0 1-9 9 9 9 0 0 1-9-9z"/><path d="M2.441 8.201a.9.9 0 0 1-.9-.9.9.9 0 0 1 .9-.9h15.121a.9.9 0 0 1 .9.9.9.9 0 0 1-.9.9H2.441zm0 5.401a.9.9 0 0 1-.9-.9.9.9 0 0 1 .9-.9h15.121a.9.9 0 0 1 .9.9.9.9 0 0 1-.9.9H2.441z"/><path d="M8.788 18.577a16.174 16.174 0 0 1-2.459-8.576 16.177 16.177 0 0 1 2.459-8.577.9.9 0 0 1 1.238-.287.9.9 0 0 1 .289 1.241 14.371 14.371 0 0 0-2.184 7.623 14.38 14.38 0 0 0 2.184 7.624.9.9 0 0 1-.289 1.239.884.884 0 0 1-.474.137.9.9 0 0 1-.764-.424z"/><path d="M9.974 18.865a.9.9 0 0 1-.287-1.241 14.39 14.39 0 0 0 2.183-7.622 14.369 14.369 0 0 0-2.183-7.624.9.9 0 0 1 .287-1.24.9.9 0 0 1 1.241.285 16.2 16.2 0 0 1 2.457 8.579 16.2 16.2 0 0 1-2.457 8.577.9.9 0 0 1-.765.423.892.892 0 0 1-.476-.137z"/></g><g fill="#fff"><path d="M0 9.001a9 9 0 0 1 9-9v1.8a7.209 7.209 0 0 0-7.2 7.2 7.212 7.212 0 0 0 7.2 7.2 7.216 7.216 0 0 0 7.2-7.2 7.213 7.213 0 0 0-7.2-7.2v-1.8a9 9 0 0 1 9 9 9 9 0 0 1-9 9 9 9 0 0 1-9-9z"/><path d="M1.441 7.201a.9.9 0 0 1-.9-.9.9.9 0 0 1 .9-.9h15.121a.9.9 0 0 1 .9.9.9.9 0 0 1-.9.9H1.441zm0 5.401a.9.9 0 0 1-.9-.9.9.9 0 0 1 .9-.9h15.121a.9.9 0 0 1 .9.9.9.9 0 0 1-.9.9H1.441z"/><path d="M7.788 17.577a16.174 16.174 0 0 1-2.459-8.576A16.177 16.177 0 0 1 7.788.424.9.9 0 0 1 9.026.137a.9.9 0 0 1 .289 1.241 14.371 14.371 0 0 0-2.184 7.623 14.38 14.38 0 0 0 2.184 7.624.9.9 0 0 1-.289 1.239.884.884 0 0 1-.474.137.9.9 0 0 1-.764-.424z"/><path d="M8.974 17.865a.9.9 0 0 1-.287-1.241 14.39 14.39 0 0 0 2.183-7.622 14.369 14.369 0 0 0-2.183-7.624.9.9 0 0 1 .287-1.24.9.9 0 0 1 1.241.285 16.2 16.2 0 0 1 2.457 8.579 16.2 16.2 0 0 1-2.457 8.577.9.9 0 0 1-.765.423.892.892 0 0 1-.476-.137z"/></g></svg>