<svg xmlns="http://www.w3.org/2000/svg" width="141.31" height="37.09" viewBox="0 0 141.31 37.09"><path fill="#231f20" d="M127.543 9.206h.018l2.951 9.363h3.513l-3.67-10.868a1.861 1.861 0 0 0-1.706-1.626h-2.195a1.859 1.859 0 0 0-1.7 1.626l-3.671 10.868h3.513zm10.561-3.157h3.13v18.29h-3.13zM116.048 24.36V7.678a1.713 1.713 0 0 0-.505-1.073 1.492 1.492 0 0 0-1.123-.532h-3.955a1.858 1.858 0 0 0-1.706 1.625V24.36h2.934V9.199h1.616v15.158zM103.299 5.283h-3.131v1.673h-4.309v2.766h2.079a4.907 4.907 0 0 0-.922 2.884 4.693 4.693 0 1 0 9.382 0 4.907 4.907 0 0 0-.925-2.881h2.029V6.956h-4.2zm.538 7.322a2.159 2.159 0 1 1-2.158-2.226 2.192 2.192 0 0 1 2.158 2.227zm-21.379.825h6.966v-2.736h-13.99V8.712h13.99V5.977H73.907a1.721 1.721 0 0 0-1.074.5 1.475 1.475 0 0 0-.531 1.121v4.125a1.858 1.858 0 0 0 1.628 1.7h5.4v1.123h-8.528v2.766h6.031a4.924 4.924 0 1 0 8.029 0h6.031v-2.766h-8.432zm-1.615 8.979a2.248 2.248 0 1 1 2.254-2.248 2.251 2.251 0 0 1-2.254 2.245zM70.688 36.945v-7.039h2.4a3.519 3.519 0 0 1 2.59 1.006 3.446 3.446 0 0 1 1 2.545 3.55 3.55 0 0 1-.38 1.629 3.333 3.333 0 0 1-1.051 1.232 3.433 3.433 0 0 1-1.168.507 5.589 5.589 0 0 1-1.249.117zm2.36-1.386a2.089 2.089 0 0 0 1.559-.552 2.063 2.063 0 0 0 .544-1.528 2.126 2.126 0 0 0-.571-1.6 2.386 2.386 0 0 0-1.7-.552h-.707v4.232zm4.668-3.553a3.637 3.637 0 0 1 .814-1.2 3.58 3.58 0 0 1 1.16-.751 3.755 3.755 0 0 1 2.761 0 3.5 3.5 0 0 1 1.176.76 3.769 3.769 0 0 1 .807 1.177 3.452 3.452 0 0 1 .289 1.4 3.732 3.732 0 0 1-.254 1.366 3.667 3.667 0 0 1-.688 1.141 4.151 4.151 0 0 1-1.24.86 3.684 3.684 0 0 1-1.484.307 3.531 3.531 0 0 1-1.485-.317 3.708 3.708 0 0 1-1.233-.886 3.824 3.824 0 0 1-.669-1.132 3.883 3.883 0 0 1-.235-1.339 3.572 3.572 0 0 1 .281-1.386zm1.407 2.263a1.849 1.849 0 0 0 .445.7 2.116 2.116 0 0 0 .687.48 1.926 1.926 0 0 0 .8.171 2 2 0 0 0 1.522-.633 2.2 2.2 0 0 0 .606-1.6 2.016 2.016 0 0 0-.145-.769 2.243 2.243 0 0 0-.444-.668 1.989 1.989 0 0 0-.7-.534 2.109 2.109 0 0 0-.842-.154 2.133 2.133 0 0 0-.778.135 1.826 1.826 0 0 0-.653.453 2.164 2.164 0 0 0-.489.714 2.326 2.326 0 0 0-.154.841 2.459 2.459 0 0 0 .138.861zm6.513 2.675v-7.038h1.4l2.894 4.2v-4.2h1.5v7.035h-1.356l-2.927-4.3v4.3zM99.6 33.123a4.293 4.293 0 0 1-1.122 2.885 3.374 3.374 0 0 1-2.535 1.053 3.706 3.706 0 0 1-2.713-1.2 3.788 3.788 0 0 1-.905-2.474 3.587 3.587 0 0 1 .282-1.4 3.537 3.537 0 0 1 .811-1.188 3.411 3.411 0 0 1 1.157-.771 3.923 3.923 0 0 1 1.431-.253 3.389 3.389 0 0 1 1.92.554 4.077 4.077 0 0 1 1.394 1.749h-1.739a2.244 2.244 0 0 0-.75-.652 2.007 2.007 0 0 0-.888-.181 2.108 2.108 0 0 0-.778.136 1.834 1.834 0 0 0-.653.453 1.991 1.991 0 0 0-.488.716 2.268 2.268 0 0 0-.155.843 2.519 2.519 0 0 0 .146.87 1.976 1.976 0 0 0 .443.707 2.339 2.339 0 0 0 .688.481 2 2 0 0 0 .8.162 2.021 2.021 0 0 0 1.068-.274 1.724 1.724 0 0 0 .7-.786h-2.1v-1.428zm.901 3.831V29.92h1.513v2.662h2.132V29.92h1.5v7.034h-1.5v-2.933h-2.13v2.933zm7.285-.01h-1.593l2.779-7.035h1.312l2.781 7.035h-1.649l-.724-1.883h-2.164zm1.838-4.769l-.544 1.457h1.078zm4.025 4.781v-7.05h4v1.4h-2.49v1.428h2.49V34.1h-2.49v1.438h2.49v1.418zm12.909-.425a3.383 3.383 0 0 1-1.919.561 3.56 3.56 0 0 1-1.485-.316 3.936 3.936 0 0 1-1.239-.888 3.752 3.752 0 0 1-.668-1.14 3.844 3.844 0 0 1-.235-1.331 3.528 3.528 0 0 1 .28-1.394 3.707 3.707 0 0 1 .821-1.2 3.531 3.531 0 0 1 1.149-.76 3.671 3.671 0 0 1 1.386-.263 3.369 3.369 0 0 1 1.937.572 4.006 4.006 0 0 1 1.412 1.768h-1.675a2.264 2.264 0 0 0-.76-.68 2.1 2.1 0 0 0-.923-.19 2.185 2.185 0 0 0-.788.136 1.759 1.759 0 0 0-.643.452 1.95 1.95 0 0 0-.488.725 2.187 2.187 0 0 0-.164.84 2.462 2.462 0 0 0 .144.86 1.968 1.968 0 0 0 .454.7 2.12 2.12 0 0 0 .688.48 1.92 1.92 0 0 0 .8.171 1.955 1.955 0 0 0 .9-.2 2.105 2.105 0 0 0 .716-.633h1.756a4.3 4.3 0 0 1-1.456 1.73zm2.328.413v-7.038h1.513v7.035zm3.53.004v-5.632h-1.312v-1.41h4.127v1.407h-1.315v5.632zm6.7-.004h-1.512v-2.589l-2.182-4.446h1.685l1.266 2.743 1.25-2.743h1.684l-2.191 4.5z"/><path fill="#ec1c24" d="M15.476 27.59l2.845-1.458a3.853 3.853 0 0 1 3.117 0l2.846 1.458a3.867 3.867 0 0 0 3.116 0l2.843-1.458a3.856 3.856 0 0 1 3.118 0l2.844 1.458a3.867 3.867 0 0 0 3.116 0l2.846-1.458a3.855 3.855 0 0 1 3.118 0l2.842 1.458a2.89 2.89 0 0 0 .454.172 14.684 14.684 0 0 0 5.261-10.918C53.842 7.544 43.975 0 31.802 0S9.761 7.543 9.761 16.844a14.7 14.7 0 0 0 5.265 10.918 2.846 2.846 0 0 0 .45-.172z"/><path fill="#0071bb" d="M63.607 37.022a86.259 86.259 0 0 0-63.607 0z"/></svg>