<svg xmlns="http://www.w3.org/2000/svg" width="18" height="19.64" viewBox="0 0 18 19.64"><g opacity=".25"><path d="M2.89 19.64a1.891 1.891 0 0 1-1.889-1.888v-.944a.944.944 0 0 1 .945-.945.944.944 0 0 1 .944.945v.944h13.222V6.418c.04-.079-.233-.521-.322-.521L9.924 2.963a1.053 1.053 0 0 0-.423-.075 1.057 1.057 0 0 0-.423.075L3.213 5.897c-.088 0-.361.442-.323.521v.945a.943.943 0 0 1-.944.943.944.944 0 0 1-.945-.943v-.945a2.577 2.577 0 0 1 1.368-2.211l5.865-2.932A2.855 2.855 0 0 1 9.501 1a2.859 2.859 0 0 1 1.267.273l5.867 2.934a2.575 2.575 0 0 1 1.366 2.211v11.334a1.89 1.89 0 0 1-1.889 1.888H2.89z"/><path d="M1.945 13.029a.944.944 0 0 1-.944-.944.945.945 0 0 1 .944-.945h8.5a.945.945 0 0 1 .945.945.943.943 0 0 1-.945.944h-8.5z"/><path d="M4.111 15.586l-2.834-2.833a.944.944 0 0 1 0-1.335l2.834-2.834a.946.946 0 0 1 1.336 0 .947.947 0 0 1 0 1.336l-2.165 2.165 2.165 2.166a.944.944 0 0 1 0 1.335.944.944 0 0 1-.668.276.941.941 0 0 1-.668-.276z"/></g><g fill="#fff"><path d="M1.89 18.64a1.891 1.891 0 0 1-1.889-1.888v-.944a.944.944 0 0 1 .945-.945.944.944 0 0 1 .944.945v.944h13.222V5.418c.04-.079-.233-.521-.322-.521L8.924 1.963a1.053 1.053 0 0 0-.423-.075 1.057 1.057 0 0 0-.423.075L2.213 4.897c-.088 0-.361.442-.323.521v.945a.943.943 0 0 1-.944.943.944.944 0 0 1-.945-.943v-.945a2.577 2.577 0 0 1 1.368-2.211L7.234.275A2.855 2.855 0 0 1 8.501 0a2.859 2.859 0 0 1 1.267.273l5.867 2.934a2.575 2.575 0 0 1 1.366 2.211v11.334a1.89 1.89 0 0 1-1.889 1.888H1.89z"/><path d="M.945 12.029a.944.944 0 0 1-.944-.944.945.945 0 0 1 .944-.945h8.5a.945.945 0 0 1 .945.945.943.943 0 0 1-.945.944h-8.5z"/><path d="M3.111 14.586L.277 11.753a.944.944 0 0 1 0-1.335l2.834-2.834a.946.946 0 0 1 1.336 0 .947.947 0 0 1 0 1.336l-2.165 2.165 2.165 2.166a.944.944 0 0 1 0 1.335.944.944 0 0 1-.668.276.941.941 0 0 1-.668-.276z"/></g></svg>