<svg xmlns="http://www.w3.org/2000/svg" width="18" height="19.64" viewBox="0 0 18 19.64"><g opacity=".25"><path d="M2.888 19.642A1.892 1.892 0 0 1 1 17.753v-1.888a.946.946 0 0 1 .944-.946.945.945 0 0 1 .944.946v1.888h13.224V6.42a.872.872 0 0 0-.322-.524L9.921 2.964a1.026 1.026 0 0 0-.42-.076 1.051 1.051 0 0 0-.424.076L3.211 5.896a.888.888 0 0 0-.323.524v1.888a.944.944 0 0 1-.944.945A.945.945 0 0 1 1 8.308V6.42a2.58 2.58 0 0 1 1.366-2.212l5.866-2.933A2.864 2.864 0 0 1 9.501 1a2.9 2.9 0 0 1 1.267.273l5.866 2.935A2.572 2.572 0 0 1 18 6.42v11.333a1.89 1.89 0 0 1-1.888 1.889H2.888z"/><path d="M1.944 13.03a.945.945 0 0 1-.943-.945.943.943 0 0 1 .943-.944h8.5a.945.945 0 0 1 .947.944.947.947 0 0 1-.947.945h-8.5z"/><path d="M6.943 15.588a.944.944 0 0 1 0-1.337l2.165-2.165L6.943 9.92a.941.941 0 0 1 0-1.335.946.946 0 0 1 1.337 0l2.834 2.832a.941.941 0 0 1 .275.669.948.948 0 0 1-.275.668L8.28 15.588a.945.945 0 0 1-.669.277.944.944 0 0 1-.668-.277z"/></g><g fill="#fff"><path d="M1.888 18.642A1.892 1.892 0 0 1 0 16.753v-1.888a.946.946 0 0 1 .944-.946.945.945 0 0 1 .944.946v1.888h13.224V5.42a.872.872 0 0 0-.322-.524L8.921 1.964a1.026 1.026 0 0 0-.42-.076 1.051 1.051 0 0 0-.424.076L2.211 4.896a.888.888 0 0 0-.323.524v1.888a.944.944 0 0 1-.944.945A.945.945 0 0 1 0 7.308V5.42a2.58 2.58 0 0 1 1.366-2.212L7.232.275A2.864 2.864 0 0 1 8.501 0a2.9 2.9 0 0 1 1.267.273l5.866 2.935A2.572 2.572 0 0 1 17 5.42v11.333a1.89 1.89 0 0 1-1.888 1.889H1.888z"/><path d="M.944 12.03a.945.945 0 0 1-.943-.945.943.943 0 0 1 .943-.944h8.5a.945.945 0 0 1 .947.944.947.947 0 0 1-.947.945h-8.5z"/><path d="M5.943 14.588a.944.944 0 0 1 0-1.337l2.165-2.165L5.943 8.92a.941.941 0 0 1 0-1.335.946.946 0 0 1 1.337 0l2.834 2.832a.941.941 0 0 1 .275.669.948.948 0 0 1-.275.668L7.28 14.588a.945.945 0 0 1-.669.277.944.944 0 0 1-.668-.277z"/></g></svg>