<svg xmlns="http://www.w3.org/2000/svg" width="17.44" height="16.1" viewBox="0 0 17.44 16.1"><path fill="#fff" d="M8.719 0C3.904 0 0 3.083 0 6.887a6.716 6.716 0 0 0 4.047 5.815l-.822 3.067a.256.256 0 0 0 .062.263.241.241 0 0 0 .33.013l3.533-2.386a10.818 10.818 0 0 0 1.569.115c4.816 0 8.72-3.082 8.72-6.887S13.532 0 8.719 0zM4.062 9.065a.522.522 0 0 1-.138.379.475.475 0 0 1-.367.141.511.511 0 0 1-.321-.1.481.481 0 0 1-.17-.284.665.665 0 0 1-.007-.134v-3.27h-.95a.62.62 0 0 1-.336-.089.366.366 0 0 1-.173-.255.66.66 0 0 1-.014-.1.385.385 0 0 1 .146-.322.6.6 0 0 1 .375-.116h2.9a.62.62 0 0 1 .336.088.376.376 0 0 1 .176.254.439.439 0 0 1 .007.1.4.4 0 0 1-.144.327.586.586 0 0 1-.371.115h-.95zm4.147.389a.46.46 0 0 1-.334.131.422.422 0 0 1-.449-.285l-.262-.764H5.549l-.26.764a.421.421 0 0 1-.451.285.471.471 0 0 1-.3-.09.418.418 0 0 1-.152-.259.466.466 0 0 1-.01-.108.585.585 0 0 1 .027-.184c.02-.072.043-.146.067-.216l1.3-3.577a.45.45 0 0 1 .183-.245.581.581 0 0 1 .309-.074h.24a.63.63 0 0 1 .328.08.527.527 0 0 1 .207.3l1.211 3.513a2.463 2.463 0 0 1 .084.28c.008.051.016.092.018.12a.441.441 0 0 1-.141.329zm3.353-.065a.582.582 0 0 1-.373.115H9.094a.671.671 0 0 1-.377-.095.463.463 0 0 1-.19-.312 1.3 1.3 0 0 1-.021-.2v-3.54a.522.522 0 0 1 .137-.377.48.48 0 0 1 .367-.144.5.5 0 0 1 .322.105.5.5 0 0 1 .176.416v3.272h1.677a.6.6 0 0 1 .338.089.384.384 0 0 1 .172.255.691.691 0 0 1 .014.1.387.387 0 0 1-.147.316zm3.772.08a.577.577 0 0 1-.365.116.509.509 0 0 1-.25-.053.637.637 0 0 1-.2-.219l-1.157-1.861-.551.574v1.039a.532.532 0 0 1-.138.379.478.478 0 0 1-.368.141.513.513 0 0 1-.322-.1.479.479 0 0 1-.168-.284.585.585 0 0 1-.008-.134V5.355a.522.522 0 0 1 .137-.377.484.484 0 0 1 .367-.144.5.5 0 0 1 .321.105.461.461 0 0 1 .168.284.52.52 0 0 1 .011.132v1.521l1.579-1.813a1.065 1.065 0 0 1 .189-.173.386.386 0 0 1 .209-.056.513.513 0 0 1 .3.093.376.376 0 0 1 .166.245l.01.039a.2.2 0 0 0 0 .043.414.414 0 0 1-.046.191.919.919 0 0 1-.12.168L14.067 6.74l1.219 1.931.037.059a1 1 0 0 1 .145.292l.007.031v.033a.458.458 0 0 1-.143.383zm-8.967-3.5l-.592 1.843h1.174l-.57-1.843z"/></svg>