<svg xmlns="http://www.w3.org/2000/svg" width="18" height="18.02" viewBox="0 0 18 18.02"><path fill="#fff" d="M2.999 18.015a3 3 0 0 1-3-3v-7.2a3.668 3.668 0 0 1 1.417-2.894L6.748.774a3.663 3.663 0 0 1 4.5 0l5.333 4.147a3.669 3.669 0 0 1 1.418 2.894v7.2a3 3 0 0 1-3 3zM7.976 2.352L2.643 6.5a1.666 1.666 0 0 0-.644 1.315v7.2a1 1 0 0 0 1 1h12a1 1 0 0 0 1-1v-7.2a1.668 1.668 0 0 0-.616-1.3l-.027-.02-5.333-4.148a1.662 1.662 0 0 0-2.046 0zm-.644 7.983A1.667 1.667 0 1 1 9 12.001a1.667 1.667 0 0 1-1.666-1.666z"/></svg>
