<svg xmlns="http://www.w3.org/2000/svg" width="16.105" height="16.105" style="enable-background:new 0 0 16.105 16.105" xml:space="preserve"><path style="fill:#fff" d="M12.526 8.054a.895.895 0 0 0-.894.895v4.475a.903.903 0 0 1-.896.895H2.685a.9.9 0 0 1-.896-.895V5.368a.899.899 0 0 1 .896-.894H7.16a.893.893 0 0 0 .893-.893.893.893 0 0 0-.893-.896H2.685A2.683 2.683 0 0 0 0 5.368v8.055c0 1.48 1.2 2.683 2.685 2.683h8.052a2.684 2.684 0 0 0 2.685-2.683V8.948a.895.895 0 0 0-.896-.894zM16.065.692c-.011-.045-.009-.092-.026-.136-.024-.059-.069-.107-.106-.16-.03-.045-.049-.095-.089-.135-.043-.043-.098-.064-.146-.097-.05-.033-.093-.075-.147-.097a.897.897 0 0 0-.275-.055C15.253.011 15.233 0 15.212 0h-4.476a.896.896 0 1 0 0 1.791h2.313L5.63 9.209a.897.897 0 0 0 .633 1.529c.23 0 .458-.087.633-.264l7.42-7.419V5.37c0 .494.401.893.896.893a.893.893 0 0 0 .894-.893V.896c-.001-.071-.025-.137-.041-.204z"/></svg>