<svg xmlns="http://www.w3.org/2000/svg" width="34.441" height="33.381" style="enable-background:new 0 0 34.441 33.381" xml:space="preserve"><path style="fill:#fff" d="M1.002 1.002h23.121v31.379H1.002z"/><path style="fill:#010101" d="m1.002 33.381-1.002-1V1.002L1.002 0h23.12l.999 1.002v31.379l-.999 1H1.002zm23.12-1v-1.002 1.002zM2 31.379h21.122V2.001H2v29.378z"/><path style="fill:#fff" d="M5.13 6.783h14.864"/><path style="fill:#010101" d="M5.129 7.783V5.782h14.865v2.001H5.129z"/><path style="fill:#fff" d="M5.13 11.736h14.864"/><path style="fill:#010101" d="M5.129 12.736v-2h14.865v2H5.129z"/><path style="fill:#fff" d="M5.13 16.691h14.864"/><path style="fill:#010101" d="M5.129 17.69v-1.999h14.865v1.999H5.129z"/><path style="fill:#fff" d="M13.388 27.426h6.606"/><path style="fill:#010101" d="M13.387 28.425v-1.999h6.607v1.999h-6.607z"/><path style="fill:#fff" d="M31.978 13.99 19.67 20.743l-2.825 3.435 4.414-.539 12.306-6.752z"/><path style="fill:#010101" d="m16.072 23.541 2.825-3.434.29-.241 12.309-6.753 1.357.395 1.588 2.896-.396 1.359-12.306 6.75-.359.115-4.413.541-.895-1.628zm4.246-2.016-1.114 1.354 1.742-.212 11.261-6.179-.627-1.144-11.262 6.181zM31.1 14.471l.878-.481-.878.481z"/></svg>