<svg xmlns="http://www.w3.org/2000/svg" width="14.367" height="15.951" style="enable-background:new 0 0 14.367 15.951" xml:space="preserve"><path style="fill:#4e4e4e" d="M11.934 1.584H11.2V.851c0-.47-.38-.849-.851-.849a.85.85 0 0 0-.85.849v.733H4.867V.852a.852.852 0 1 0-1.701 0v.732h-.732A2.434 2.434 0 0 0 0 4.018v9.498a2.436 2.436 0 0 0 2.434 2.436h9.5a2.439 2.439 0 0 0 2.434-2.436V4.018a2.438 2.438 0 0 0-2.434-2.434zm.732 11.932a.733.733 0 0 1-.732.734h-9.5a.734.734 0 0 1-.734-.734V8.033h10.967v5.483zm0-7.182H1.699V4.018a.736.736 0 0 1 .734-.734h.732v.732a.852.852 0 1 0 1.702 0v-.733H9.5v.734a.851.851 0 0 0 1.701 0v-.734h.733c.403 0 .732.33.732.734v2.317zm-8.65 6.449H5.6a.848.848 0 0 0 .851-.849V10.35a.842.842 0 0 0-.249-.601A.846.846 0 0 0 5.6 9.5H4.016a.86.86 0 0 0-.602.248.863.863 0 0 0-.248.603v1.584c0 .222.09.441.248.6.16.159.377.248.602.248z"/></svg>