<svg xmlns="http://www.w3.org/2000/svg" width="18" height="18.002" style="enable-background:new 0 0 18 18.002" xml:space="preserve"><path style="fill:#4e4e4e" d="M14.001 0H4.002A4.006 4.006 0 0 0 0 4.002v12.969c-.005.181.039.364.132.526l.003.006a.083.083 0 0 0 .008.012l.008.014a.986.986 0 0 0 .319.32l.004.003.015.009.011.007a.999.999 0 0 0 .775.097l.002-.001a.06.06 0 0 0 .019-.005l.009-.003.011-.004c.005 0 .01-.002.014-.004a.069.069 0 0 0 .008-.003l.017-.006.004-.002c.146-.056.276-.144.38-.257l3.679-3.679h8.586a3.998 3.998 0 0 0 3.999-3.999v-6A4.007 4.007 0 0 0 14.001 0zm2.001 10.002a2.006 2.006 0 0 1-2.001 2h-9c-.263 0-.521.104-.708.291l-2.292 2.294V4.002a2.004 2.004 0 0 1 2.001-2h9.999a2.004 2.004 0 0 1 2.001 2v6zm-7.001-7a.998.998 0 0 0-.999 1v3a1 1 0 1 0 2 0v-3a1 1 0 0 0-1.001-1zm0 6a.998.998 0 0 0-.999 1.001v.008a1 1 0 0 0 2 0v-.008a1 1 0 0 0-1.001-1.001z"/></svg>