<svg xmlns="http://www.w3.org/2000/svg" width="18" height="18" style="enable-background:new 0 0 18 18" xml:space="preserve"><path style="fill:#4e4e4e" d="M14.002 0h-10A4 4 0 0 0 0 3.999l.002 12.936a.995.995 0 0 0 .293.772.997.997 0 0 0 1.413 0l3.708-3.71h8.586A3.997 3.997 0 0 0 18 9.999v-6A3.996 3.996 0 0 0 14.002 0zm0 11.999H5.001c-.263 0-.521.106-.706.292L2 14.585V3.999a2.006 2.006 0 0 1 2.002-2.002h10A2.005 2.005 0 0 1 16 3.999l.002 6a2.005 2.005 0 0 1-2 2zm-5-6.001c-.553 0-1 .446-1 1v.011a1 1 0 1 0 2 0v-.011a1 1 0 0 0-1-1zm-4-.001C4.449 5.997 4 6.446 4 7v.01a1.002 1.002 0 0 0 2.002 0V7c0-.554-.449-1.003-1-1.003zm8 .001c-.553 0-1 .446-1 1v.011c0 .55.447 1 1 1a1 1 0 0 0 .998-1v-.011c0-.554-.447-1-.998-1z"/></svg>