<svg xmlns="http://www.w3.org/2000/svg" width="15.999" height="8.728" style="enable-background:new 0 0 15.999 8.728" xml:space="preserve"><path style="fill:#fff" d="M15.787.214a.73.73 0 0 0-1.029 0L7.999 6.971l-3.121-3.12A.728.728 0 0 0 3.85 4.88v-.002l3.636 3.638a.726.726 0 0 0 1.029 0l7.273-7.274a.73.73 0 0 0-.001-1.028zM8 5.091c.186 0 .372-.07.515-.213l3.636-3.637A.727.727 0 1 0 11.122.213L7.485 3.849A.73.73 0 0 0 8 5.091zM1.242 3.849a.73.73 0 0 0-1.029 0 .73.73 0 0 0 0 1.029L3.85 8.515a.733.733 0 0 0 1.03 0 .73.73 0 0 0 0-1.029L1.242 3.849z"/></svg>