<svg xmlns="http://www.w3.org/2000/svg" width="16.105" height="17.001" style="enable-background:new 0 0 16.105 17.001" xml:space="preserve"><path style="fill:#fff" d="M15.211 11.632a.894.894 0 0 0-.895.896v1.787a.898.898 0 0 1-.895.895H2.684a.895.895 0 0 1-.893-.895v-1.787a.895.895 0 1 0-1.791 0v1.787c0 1.484 1.2 2.686 2.684 2.686h10.738a2.683 2.683 0 0 0 2.682-2.686l.002-1.787a.897.897 0 0 0-.895-.896zM2.945 7.79l4.475 4.475c.082.082.18.147.288.193.043.018.091.017.137.027.068.017.134.042.208.042.091 0 .173-.026.256-.052.028-.009.06-.006.087-.018a.892.892 0 0 0 .29-.193l4.473-4.475a.894.894 0 1 0-1.266-1.264L8.947 9.471V.896a.895.895 0 1 0-1.789 0v8.575L4.212 6.526a.896.896 0 0 0-1.267 0 .89.89 0 0 0 .002 1.264h-.002z"/></svg>