<svg xmlns="http://www.w3.org/2000/svg" width="16.998" height="17.002" style="enable-background:new 0 0 16.998 17.002" xml:space="preserve"><path style="fill:#4e4e4e" d="M16.706.293A.996.996 0 0 0 15.999 0h-15A1.002 1.002 0 0 0 0 1v10.501a.998.998 0 0 0 .999.999h6.5v2.501h-3.5a.998.998 0 1 0 0 1.999h4.49l.01.002.01-.002H13a.998.998 0 0 0 .999-1 .998.998 0 0 0-.999-.999H9.499V12.5h6.5a.998.998 0 0 0 .999-.999V1a.994.994 0 0 0-.292-.707zm-1.707 10.208H8.504l-.005-.001-.005.001H1.999V1.999h13v8.502z"/></svg>