<svg xmlns="http://www.w3.org/2000/svg" width="18.001" height="20.485" style="enable-background:new 0 0 18.001 20.485" xml:space="preserve"><path style="fill:#4e4e4e" d="M9.001 5.001a4.002 4.002 0 0 0-4.001 4 4.004 4.004 0 0 0 4.001 4 4.003 4.003 0 0 0 4-4 4.001 4.001 0 0 0-4-4zm0 6a2.005 2.005 0 0 1-2-2 2.003 2.003 0 0 1 2-2 2.003 2.003 0 0 1 2 2 2.005 2.005 0 0 1-2 2zm6.365-8.364A8.99 8.99 0 0 0 8.993 0a8.975 8.975 0 0 0-6.355 2.637A8.975 8.975 0 0 0 0 9.001c0 2.3.881 4.609 2.638 6.363l4.244 4.244a2.997 2.997 0 0 0 2.119.877h.008c.762 0 1.529-.296 2.111-.877l4.246-4.244c1.754-1.754 2.635-4.063 2.635-6.363s-.881-4.61-2.635-6.364zm-1.414 11.314-4.245 4.243a1 1 0 0 1-1.412 0L4.05 13.951A6.989 6.989 0 0 1 2 9.001a6.975 6.975 0 0 1 2.05-4.949A6.967 6.967 0 0 1 8.993 2a6.993 6.993 0 0 1 4.959 2.052 6.984 6.984 0 0 1 2.049 4.949 6.981 6.981 0 0 1-2.049 4.95z"/></svg>