<svg xmlns="http://www.w3.org/2000/svg" width="20" height="20" style="enable-background:new 0 0 20 20" xml:space="preserve"><path style="fill:#4e4e4e" d="M18.75 5.347V4.161c0-.663-.264-1.299-.732-1.769l-1.66-1.66C15.953.328 15.161 0 14.59 0H6.815c-.657 0-1.19.56-1.19 1.25v4.097A2.471 2.471 0 0 0 4.375 5H2.5A2.5 2.5 0 0 0 0 7.5v10A2.5 2.5 0 0 0 2.5 20h1.875c.595 0 1.133-.216 1.563-.563.429.347.967.563 1.562.563h10a2.5 2.5 0 0 0 2.5-2.5v-10a2.49 2.49 0 0 0-1.25-2.153zM5 17.5c0 .345-.28.625-.625.625H2.5a.625.625 0 0 1-.625-.625v-10c0-.345.28-.625.625-.625h1.875c.345 0 .625.28.625.625v10zM7.5 1.875h6.875V3.75c0 .346.279.625.625.625h1.875V7.5H7.5V1.875zM18.125 17.5c0 .345-.28.625-.625.625h-10a.625.625 0 0 1-.625-.625V9.375h11.25V17.5zm-4.375-4.375H15a.624.624 0 0 0 .625-.625v-1.25a.625.625 0 0 0-.625-.625h-1.25a.625.625 0 0 0-.625.625v1.25c0 .346.279.625.625.625zM10 16.875h1.25a.624.624 0 0 0 .625-.625V15a.625.625 0 0 0-.625-.625H10a.625.625 0 0 0-.625.625v1.25c0 .346.279.625.625.625zm0-3.75h1.25a.624.624 0 0 0 .625-.625v-1.25a.625.625 0 0 0-.625-.625H10a.625.625 0 0 0-.625.625v1.25c0 .346.279.625.625.625zm3.75 3.75H15a.624.624 0 0 0 .625-.625V15a.625.625 0 0 0-.625-.625h-1.25a.625.625 0 0 0-.625.625v1.25c0 .346.279.625.625.625z"/></svg>