<svg xmlns="http://www.w3.org/2000/svg" width="20.001" height="15.999" style="enable-background:new 0 0 20.001 15.999" xml:space="preserve"><path style="fill:#4e4e4e" d="M19.983 2.829c-.001-.008 0-.016-.002-.024A2.99 2.99 0 0 0 17.001 0h-14a2.989 2.989 0 0 0-2.98 2.802l-.003.036C.015 2.893.001 2.944.001 3v9.999a3 3 0 0 0 3 3h14a3 3 0 0 0 2.999-3V3c0-.059-.013-.113-.017-.171zm-16.982-.83h14a.99.99 0 0 1 .876.547L10 7.796l-7.878-5.25a.993.993 0 0 1 .879-.547zm14 12h-14a1.002 1.002 0 0 1-1.001-1V4.868l7.444 4.963a1.002 1.002 0 0 0 1.111 0L18 4.868v8.131a1.003 1.003 0 0 1-.999 1z"/></svg>