<svg xmlns="http://www.w3.org/2000/svg" width="19" height="19.001" style="enable-background:new 0 0 19 19.001" xml:space="preserve"><path style="fill:#4e4e4e" d="M15.938 18.999C7.361 18.479.523 11.638.003 3.061L0 3.001A3 3 0 0 1 2.922.003L3 0h4c.408 0 .776.251.929.629L9.928 5.63a.996.996 0 0 1-.414 1.229L7.84 7.862a9.986 9.986 0 0 0 3.299 3.299l1.004-1.674a.995.995 0 0 1 1.229-.414l5 2c.377.151.628.521.628.929v4a3 3 0 0 1-3 2.999l-.062-.002zM16 17.001c.551-.002 1-.449 1-.999v-3.323l-3.58-1.434-1.063 1.771a.998.998 0 0 1-1.3.382 12.01 12.01 0 0 1-5.456-5.453 1.007 1.007 0 0 1 .385-1.302l1.768-1.062-1.432-3.579H3l-.042-.001a1.003 1.003 0 0 0-.957.977C2.477 10.527 8.505 16.545 16 17.001z"/></svg>