<svg xmlns="http://www.w3.org/2000/svg" width="16" height="20" style="enable-background:new 0 0 16 20" xml:space="preserve"><path style="fill:#4e4e4e" d="M15.946 5.731c-.011-.038-.009-.08-.024-.116a1 1 0 0 0-.218-.325L10.707.293A1.012 1.012 0 0 0 10 0H2.999A2.998 2.998 0 0 0 0 3v14c0 1.657 1.342 3 2.999 3h10a2.999 2.999 0 0 0 2.999-3V6.008l.002-.01c0-.095-.029-.18-.054-.267zm-4.947-2.318 1.585 1.586h-1.586l.001-1.586zM13.998 17c0 .55-.447.998-.999 1h-10A1.002 1.002 0 0 1 2 17V3c0-.552.447-.999.999-1.002h5.999v3.001A2 2 0 0 0 11 6.998L13.998 7v10zM4.999 7.999H6a1 1 0 0 0 0-1.998H4.999a.999.999 0 1 0 0 1.998zm0 2.002A.995.995 0 0 0 4 11a.998.998 0 0 0 .999 1.001H11a1 1 0 0 0 0-2H4.999zM11 13.998H4.999a1 1 0 0 0 0 2H11a1 1 0 0 0 0-2z"/></svg>