<svg xmlns="http://www.w3.org/2000/svg" width="184.311" height="228.292" style="enable-background:new 0 0 184.311 228.292" xml:space="preserve"><path style="fill:#b0b0b1" d="M111.19.396 5.533 58.305C2.112 60.275 0 64.629 0 68.576l.396 87.352c0 2.059 1.082 3.744 2.614 4.693l6.453 3.656 1.33-1.885c.107-.06.213-.115.324-.174l104.383-59.97a11.048 11.048 0 0 0 5.521-9.563l2.014-86.049c0-2.039.117-2.938-4.587-5.047-1.857-.831-5.344-2.297-7.258-1.193"/><path style="fill:#919190" d="m85.904 115.781-.043 14.682a9.719 9.719 0 0 0 4.858 8.453l12.771 10.386-35.297 20.376-14.344-8.705c-3.021-1.736-6.015-4.953-6.015-8.439v-16.221l38.07-20.532"/><path style="fill:#fff" d="m88.428 114.32-.052 15.625a8.108 8.108 0 0 0 4.051 7.043l11.063 6.385-35.296 20.381-11.099-6.375a8.107 8.107 0 0 1-4.069-7.025v-15.688l35.402-20.346"/><path style="fill:#b0b0b1" d="M103.49 143.373v5.928l-35.297 20.377v-5.924z"/><path style="fill:#fff" d="M14.602 164.02c-3.679 2.127-8.283-.527-8.283-4.783l-.395-87.35a11.04 11.04 0 0 1 5.532-9.566L116.229 3.609c3.68-2.121 8.278.537 8.278 4.783v86.094c0 3.943-2.104 7.592-5.519 9.563L14.602 164.02z"/><path style="fill:#c0e3e7" d="M117.145 11.75v80.236L14.29 151.068l-.394-81.638z"/><path style="fill:#919190" d="M110.535 14.934v80.24l6.609-3.188V11.75z"/><path style="fill:#919190" d="M114.064 86.836 14.29 143.785v7.283l102.854-59.082zM45.407 194.488l.012 6.764 46.52 27.039-.011-6.77z"/><path style="fill:#b0b0b1" d="m91.928 221.521.012 6.771 92.371-53.618-.012-6.766z"/><path style="fill:#dddcdc" d="m45.407 194.488 46.521 27.033 92.372-53.613-46.522-27.037z"/><path style="fill:#fff" d="M139.99 151.586c.204.115.209.303.017.418l-4.667 2.705a.78.78 0 0 1-.713-.006l-4.838-2.793c-.202-.119-.21-.299-.016-.414l4.661-2.709c.196-.113.515-.109.718.006l4.838 2.793zM132.328 156.041c.2.119.205.303.012.412l-4.66 2.711c-.196.111-.514.106-.717-.006l-4.839-2.795c-.203-.119-.207-.302-.014-.412l4.662-2.711a.776.776 0 0 1 .714.004l4.842 2.797zM136.039 162.18c.199.113.206.301.013.414l-4.664 2.711c-.195.111-.515.107-.717-.006l-4.839-2.795c-.201-.119-.211-.305-.017-.418l4.664-2.709c.194-.113.515-.109.717.008l4.843 2.795zM124.664 160.496c.199.115.204.303.012.412l-4.665 2.713a.789.789 0 0 1-.714-.012l-4.838-2.791c-.202-.117-.206-.303-.016-.412l4.663-2.713a.795.795 0 0 1 .717.006l4.841 2.797zM128.257 166.697c.203.119.208.305.014.418l-4.661 2.707a.794.794 0 0 1-.717-.002l-4.839-2.797c-.203-.117-.209-.303-.018-.414l4.665-2.709c.194-.117.515-.111.716.002l4.84 2.795zM117 164.949c.199.119.205.299.011.412l-4.663 2.715a.81.81 0 0 1-.715-.008l-4.842-2.795c-.2-.119-.203-.304-.011-.412l4.663-2.715a.799.799 0 0 1 .716.008l4.841 2.795zM120.479 171.223c.201.115.207.299.012.41l-4.662 2.711a.778.778 0 0 1-.715-.006l-4.842-2.795c-.2-.117-.205-.299-.014-.416l4.664-2.707a.779.779 0 0 1 .718.008l4.839 2.795zM109.334 169.408c.201.111.205.295.015.41l-4.664 2.705a.786.786 0 0 1-.716-.002l-4.838-2.795c-.203-.115-.208-.301-.014-.418l4.661-2.709a.801.801 0 0 1 .714.01l4.842 2.799zM102.012 173.658c.199.115.206.301.012.414l-4.663 2.711a.78.78 0 0 1-.713-.01l-4.839-2.791c-.201-.117-.208-.301-.017-.412l4.663-2.713a.786.786 0 0 1 .716.008l4.841 2.793zM112.582 175.809c.202.117.205.307.014.416l-4.665 2.709a.786.786 0 0 1-.713-.006l-4.844-2.795c-.198-.119-.206-.304-.013-.412l4.661-2.715a.812.812 0 0 1 .719.01l4.841 2.793zM139.258 169.064c.199.111.205.299.01.41l-4.662 2.713a.792.792 0 0 1-.716-.008l-4.845-2.791c-.197-.119-.201-.301-.01-.414l4.666-2.713a.797.797 0 0 1 .715.004l4.842 2.799zM131.512 173.561c.201.117.206.305.013.42l-4.662 2.707a.799.799 0 0 1-.719-.006l-4.839-2.801c-.201-.107-.204-.295-.015-.408l4.666-2.709c.193-.117.517-.111.716.006l4.84 2.791zM123.766 178.064c.201.113.208.301.014.41l-4.662 2.711c-.194.113-.516.111-.719-.004l-4.838-2.795c-.202-.117-.205-.299-.012-.414l4.662-2.709a.794.794 0 0 1 .714.006l4.841 2.795zM116.051 182.549c.199.115.204.303.011.414l-4.662 2.713a.797.797 0 0 1-.715-.01l-4.843-2.793c-.2-.115-.204-.301-.011-.416l4.662-2.707a.796.796 0 0 1 .715.002l4.843 2.797zM161.363 163.926c.531.309.798.543.196.891l-14.987 8.715c-.604.346-1.308.193-1.51.076l-4.369-2.525c-.199-.117-.295-.42.31-.773l14.989-8.709c.598-.348.976-.211 1.179-.094.195.11 3.878 2.237 4.192 2.419M143.197 175.068c.197.117.207.299.015.412l-4.668 2.709c-.192.115-.513.111-.713-.004l-4.838-2.795c-.202-.115-.21-.305-.02-.416l4.667-2.711c.195-.113.514-.107.716.008l4.841 2.797zM135.393 179.604c.198.111.204.303.015.41l-4.665 2.713a.79.79 0 0 1-.715-.008l-4.842-2.795c-.199-.115-.208-.301-.013-.414l4.661-2.709a.795.795 0 0 1 .717.006l4.842 2.797zM127.369 184.266c.202.115.21.299.018.41l-4.665 2.711a.794.794 0 0 1-.715-.008l-4.84-2.793c-.202-.119-.209-.301-.017-.414l4.665-2.711c.193-.111.515-.107.717.006l4.837 2.799zM119.569 188.797c.198.117.202.303.012.418l-4.664 2.707c-.195.113-.515.107-.713-.006l-4.841-2.793c-.201-.119-.21-.303-.017-.416L114.01 186a.784.784 0 0 1 .718.004l4.841 2.793zM169.315 168.51c.201.117.267.4.025.541l-8.902 5.17c-.237.137-.808.148-1.008.035l-4.735-2.738c-.2-.112-.062-.373.179-.514l8.899-5.172c.237-.136.606-.176.806-.055l4.736 2.733zM146.816 155.82c.202.117.264.4.025.543l-8.217 4.83c-.239.137-.812.146-1.011.033l-4.736-2.738c-.201-.115-.062-.373.177-.512l8.221-4.828c.236-.142.604-.178.806-.061l4.735 2.733zM157.863 175.164c.201.119.32.367.081.51l-8.899 5.17c-.239.141-.864.182-1.065.066l-4.734-2.736c-.2-.113-.009-.404.229-.545l8.901-5.172c.24-.139.552-.141.753-.029l4.734 2.736zM146.072 182.01c.199.119.341.365-.043.584-.375.219-26.072 15.156-26.437 15.365-.365.209-.854.168-1.058.051l-4.733-2.734c-.202-.113-.231-.266.052-.434a70731.548 70731.548 0 0 0 26.611-15.463c.357-.207.669-.217.87-.099l4.738 2.73zM94.346 178.113c.202.115.211.301.016.416l-4.665 2.705a.772.772 0 0 1-.712-.004l-4.84-2.795c-.204-.117-.209-.301-.017-.414l4.664-2.707a.79.79 0 0 1 .715.004l4.839 2.795zM104.801 180.33c.203.117.207.301.013.416l-4.66 2.707c-.194.113-.514.107-.716-.006l-4.84-2.793c-.2-.117-.208-.303-.018-.414l4.664-2.709a.79.79 0 0 1 .718.004l4.839 2.795zM86.682 182.566c.206.119.209.299.014.418l-4.661 2.707a.784.784 0 0 1-.715-.008l-4.841-2.793c-.2-.119-.207-.304-.014-.414l4.664-2.709a.774.774 0 0 1 .713.004l4.84 2.795zM97.02 184.854c.205.117.21.299.016.41l-4.662 2.713c-.193.111-.512.106-.714-.006l-4.84-2.797c-.201-.119-.208-.3-.02-.412l4.666-2.709a.778.778 0 0 1 .715.004l4.839 2.797zM79.018 187.021c.203.117.205.303.014.414l-4.663 2.709a.776.776 0 0 1-.714-.006l-4.84-2.795c-.202-.115-.208-.301-.015-.414l4.66-2.707a.788.788 0 0 1 .72.004l4.838 2.795zM89.242 189.369c.203.119.209.305.014.414l-4.66 2.713c-.196.113-.514.109-.719-.006l-4.837-2.793c-.202-.119-.212-.306-.015-.42l4.66-2.707c.194-.111.516-.105.718.01l4.839 2.789zM108.307 187.047c.197.117.203.303.012.412l-4.663 2.713c-.194.115-.518.111-.716-.006l-4.84-2.795c-.201-.115-.207-.301-.015-.41l4.667-2.713a.803.803 0 0 1 .712.006l4.843 2.793zM71.354 191.475c.201.117.207.301.013.414l-4.661 2.711a.807.807 0 0 1-.717-.004l-4.845-2.799c-.199-.113-.202-.299-.008-.412l4.66-2.713a.777.777 0 0 1 .717.012l4.841 2.791zM86.053 195.889c.203.115.264.303-.047.484l-8.11 4.691c-.313.182-.529.09-.732-.029l-8.787-5.059c-.199-.117-.407-.27-.096-.453l8.034-4.668a.932.932 0 0 1 .878-.006l8.86 5.04zM100.559 191.551c.199.115.209.301.015.414l-4.66 2.709a.795.795 0 0 1-.717-.008l-4.842-2.795c-.201-.113-.205-.299-.013-.41l4.664-2.711c.192-.113.514-.109.712.004l4.841 2.797zM111.762 193.334c.201.115.207.301.014.412l-4.662 2.711a.81.81 0 0 1-.715-.002l-4.841-2.801c-.202-.113-.207-.303-.016-.412l4.664-2.711a.778.778 0 0 1 .715.01l4.841 2.793zM103.959 197.867c.198.117.207.299.014.414l-4.663 2.713a.79.79 0 0 1-.715-.01l-4.84-2.789c-.2-.121-.209-.309-.016-.42l4.662-2.709c.195-.111.515-.107.719.008l4.839 2.793z"/><path style="fill:#fff" d="M93.066 195.572c.197.117.205.174-.246.437l-11.35 6.595c-.45.264-.853.436-1.053.323l-4.735-2.731c-.201-.121-.04-.193.41-.455l11.556-6.715c.455-.266.481-.301.683-.182l4.735 2.728zM153.984 159.998c.198.117.204.174-.247.438l-11.35 6.596c-.449.262-.853.438-1.054.321l-4.734-2.733c-.203-.119-.041-.188.411-.453l11.556-6.713c.453-.266.48-.301.681-.185l4.737 2.729zM96.463 201.98c.201.113.402.434.079.621l-7.954 4.621c-.322.189-.739-.006-.938-.121l-4.736-2.736c-.204-.114-.22-.168.105-.359l7.956-4.621c.319-.191.55-.256.754-.143l4.734 2.738zM116.641 199.121c.202.117.132.477-.108.615l-8.898 5.176c-.242.137-.676.07-.88-.045l-4.732-2.736c-.199-.114-.195-.301.045-.439l8.897-5.168c.24-.141.743-.252.943-.139l4.733 2.736zM105.19 205.773c.202.117.185.445-.056.584l-8.897 5.176c-.242.141-.729.104-.934-.016l-4.733-2.732c-.203-.114-.144-.328.098-.467l8.898-5.172c.238-.137.688-.221.889-.107l4.735 2.734z"/><path style="fill:#67a9ce" d="M77.875 46.377 77.83 55.5 49.684 70.781l.045-9.121z"/><path style="fill:#fff" d="m91.084 53.676-.047 3.56-54.561 30.227.045-3.558zM91.084 61.41l-.047 3.562-54.561 30.225.045-3.557zM91.084 69.143l-.047 3.563-54.561 30.224.045-3.557zM91.084 76.877l-.047 3.561-54.561 30.226.045-3.557zM91.084 84.611l-.047 3.561-54.561 30.226.045-3.558z"/></svg>