<svg xmlns="http://www.w3.org/2000/svg" width="37.094" height="25.683" style="enable-background:new 0 0 37.094 25.683" xml:space="preserve"><linearGradient id="a" gradientUnits="userSpaceOnUse" x1="4.893" y1="-.734" x2="33.909" y2="28.281" gradientTransform="translate(-.906)"><stop offset="0" style="stop-color:#b3324a"/><stop offset="1" style="stop-color:#485990"/></linearGradient><path style="fill:url(#a)" d="M5.807 2.557h25.271v15.365h2.555V0H3.252v17.922h2.555V2.557zm14.797 16.541v1.279l-4.115.064v-1.344H0v3.731c0 1.6 1.035 2.854 2.353 2.854h32.385c1.321 0 2.356-1.254 2.356-2.854v-3.731h-16.49zm13.935 3.731a.903.903 0 0 1-.048.298H2.603a.93.93 0 0 1-.047-.298v-1.175h11.377v1.343h9.229v-1.278l11.378-.064v1.174z"/></svg>