<svg xmlns="http://www.w3.org/2000/svg" width="40.805" height="40.8" style="enable-background:new 0 0 40.805 40.8" xml:space="preserve"><path style="fill:#fff" d="M13.678 5.276a.6.6 0 0 1 .424-.178h12.6a.6.6 0 0 1 .6.601 5.706 5.706 0 0 0 5.701 5.701l2.098-.002a2.704 2.704 0 0 1 2.701 2.701v16.802a1.501 1.501 0 0 0 3.004 0L40.801 14.1A5.7 5.7 0 0 0 35.1 8.401h-2.098A2.705 2.705 0 0 1 30.303 5.7a3.604 3.604 0 0 0-3.602-3.599l-12.6-.002a3.616 3.616 0 0 0-2.559 1.067 1.504 1.504 0 0 0 .014 2.123 1.5 1.5 0 0 0 2.122-.013zM2.563.44a1.497 1.497 0 0 0-2.121 0 1.496 1.496 0 0 0 0 2.118L6.283 8.4h-.582A5.702 5.702 0 0 0 0 14.1v18.899a5.703 5.703 0 0 0 5.701 5.7H35.1c.453 0 .896-.058 1.321-.158l1.819 1.819c.293.293.678.439 1.061.439a1.5 1.5 0 0 0 1.061-2.56L2.563.44zM17 19.118l6.786 6.786a4.785 4.785 0 0 1-3.377 1.395 4.8 4.8 0 0 1-4.807-4.796A4.803 4.803 0 0 1 17 19.118zM5.701 35.699a2.703 2.703 0 0 1-2.699-2.7V14.1a2.705 2.705 0 0 1 2.699-2.701h2.1a5.66 5.66 0 0 0 1.321-.158l5.761 5.761a7.793 7.793 0 0 0-2.281 5.502c0 1.384.371 2.796 1.148 4.065a7.797 7.797 0 0 0 6.658 3.73h.012a7.785 7.785 0 0 0 5.487-2.273L33.58 35.7H5.701z"/></svg>