<svg xmlns="http://www.w3.org/2000/svg" width="15.797" height="15.797" style="enable-background:new 0 0 15.797 15.797" xml:space="preserve"><path style="fill:#fff" d="m15.797 14.268-2.803-2.799a7.16 7.16 0 0 0 1.409-4.268A7.205 7.205 0 0 0 7.45.003V0h-.498v.003A7.202 7.202 0 0 0 0 7.199l.249.002H0a7.2 7.2 0 0 0 7.202 7.201 7.158 7.158 0 0 0 4.264-1.407l2.8 2.802 1.531-1.529zM7.2 12.244a5.05 5.05 0 0 1-5.042-5.045A5.048 5.048 0 0 1 7.201 2.16a5.05 5.05 0 0 1 5.043 5.041A5.05 5.05 0 0 1 7.2 12.244z"/></svg>