<svg xmlns="http://www.w3.org/2000/svg" width="10" height="16.001" style="enable-background:new 0 0 10 16.001" xml:space="preserve"><path style="fill:#8c8c8c" d="M9.708 10.293a1.003 1.003 0 0 0-1.416 0l-2.291 2.292V1.001a1 1 0 1 0-2.001 0v11.585l-2.293-2.293a1 1 0 1 0-1.413 1.414l3.999 4.001c.016.016.037.021.053.035.083.072.171.139.273.181.086.035.177.044.268.055.039.004.073.022.113.022.057 0 .106-.023.16-.032.074-.013.148-.016.219-.045a.983.983 0 0 0 .287-.188c.013-.012.029-.016.041-.027l.004-.006 3.996-3.994a1.002 1.002 0 0 0 .001-1.416z"/></svg>