<svg xmlns="http://www.w3.org/2000/svg" width="57.535" height="55.618" style="enable-background:new 0 0 57.535 55.618" xml:space="preserve"><path style="fill:#fff" d="M44.382 1.001H10.781a2.146 2.146 0 0 0-2.146 2.145v49.328c0 1.186.961 2.145 2.146 2.145H54.39a2.146 2.146 0 0 0 2.146-2.145V13.155L44.382 1.001z"/><path style="fill:#242423" d="M10.781 55.618a3.144 3.144 0 0 1-3.146-3.143V3.145A3.145 3.145 0 0 1 10.781 0H44.38v1l-.706.708L44.38 1V0c.265 0 .521.106.709.294l12.152 12.152c.186.188.294.445.294.709l-.002 39.32a3.143 3.143 0 0 1-3.146 3.143H10.781zM9.635 3.145v49.33a1.143 1.143 0 0 0 1.146 1.142l43.606.003a1.151 1.151 0 0 0 1.146-1.145l-.002-38.908L43.966 2.001H10.781a1.15 1.15 0 0 0-1.146 1.144z"/><path style="fill:#fff" d="M44.382 11.009c0 1.185.96 2.146 2.145 2.146h10.009L44.382 1.001v10.008z"/><path style="fill:#242423" d="M46.526 14.155a3.145 3.145 0 0 1-3.145-3.145V1.002a1 1 0 0 1 .616-.924 1.006 1.006 0 0 1 1.091.215L57.24 12.448c.284.285.373.716.218 1.089s-.52.618-.925.618H46.526zm0-2.001h7.593L45.38 3.415v7.595a1.148 1.148 0 0 0 1.146 1.144z"/><path style="fill:#f15953" d="M22.736 16.618H4.857a3.857 3.857 0 0 0-3.855 3.857v11.227a3.857 3.857 0 0 0 3.855 3.856h5.896l3.045 4.094 3.041-4.094h5.896a3.856 3.856 0 0 0 3.856-3.856V20.475a3.855 3.855 0 0 0-3.855-3.857z"/><path style="fill:#242423" d="m12.997 40.249-2.748-3.691H4.856A4.856 4.856 0 0 1 0 31.704v-11.23a4.859 4.859 0 0 1 4.856-4.857h17.88v2.002H4.856a2.86 2.86 0 0 0-2.855 2.856v11.229a2.863 2.863 0 0 0 2.855 2.856h5.896a1 1 0 0 1 .803.4l2.239 3.016 2.24-3.016a.997.997 0 0 1 .806-.4h5.896a2.861 2.861 0 0 0 2.855-2.856v-11.23a2.858 2.858 0 0 0-2.855-2.856v-2.002a4.856 4.856 0 0 1 4.854 4.857v11.229a4.854 4.854 0 0 1-4.854 4.854h-5.395l-2.74 3.689a.994.994 0 0 1-.804.404.987.987 0 0 1-.8-.4z"/><path style="fill:#fff" d="M39.02 31.384h9.651"/><path style="fill:#242423" d="M39.02 32.385a1 1 0 0 1 0-2.002h9.652a1 1 0 0 1 0 2.002H39.02z"/><path style="fill:#fff" d="M39.02 37.818h9.651"/><path style="fill:#242423" d="M39.02 38.818a.998.998 0 1 1 0-1.999h9.652a1 1 0 0 1 0 1.999H39.02z"/><path style="fill:#fff" d="M39.02 44.252h9.651"/><path style="fill:#242423" d="M39.02 45.253a1 1 0 0 1 0-2.002h9.652a1.001 1.001 0 0 1 0 2.002H39.02z"/></svg>