<svg xmlns="http://www.w3.org/2000/svg" width="65.583" height="55.172" style="enable-background:new 0 0 65.583 55.172" xml:space="preserve"><path style="fill:#fff" d="M58.28 47.691a3.187 3.187 0 0 1-3.189 3.188H10.487a3.188 3.188 0 0 1-3.188-3.188V11.974a3.19 3.19 0 0 1 3.188-3.187h44.604a3.188 3.188 0 0 1 3.189 3.187v35.717z"/><path style="fill:#242423" d="M10.488 51.879A4.186 4.186 0 0 1 6.3 47.69V11.975a4.187 4.187 0 0 1 4.188-4.188H55.09a4.192 4.192 0 0 1 4.19 4.188v35.714h-.002a4.186 4.186 0 0 1-4.188 4.189H10.488v.001zM8.299 11.975v35.714a2.19 2.19 0 0 0 2.189 2.189H55.09a2.188 2.188 0 0 0 2.188-2.189V11.975a2.189 2.189 0 0 0-2.188-2.187H10.488a2.191 2.191 0 0 0-2.189 2.187z"/><path style="fill:#b9e3e4" d="M60.226 54.172H5.354A4.36 4.36 0 0 1 1 49.817V44.752h25.2l.204.91a2.005 2.005 0 0 0 1.964 1.568h8.849c.941 0 1.747-.643 1.961-1.568l.205-.91h25.203V49.817a4.366 4.366 0 0 1-4.36 4.355z"/><path style="fill:#242423" d="M5.353 55.172A5.361 5.361 0 0 1 0 49.816V44.751c0-.264.106-.521.292-.707.187-.185.443-.292.708-.292H26.198a1 1 0 0 1 .978.781l.203.904c.111.477.505.787.989.793h8.85c.476-.004.869-.314.983-.787l.206-.91a.998.998 0 0 1 .975-.781h25.203a.998.998 0 0 1 1 1V49.817a5.362 5.362 0 0 1-5.357 5.355v-2a3.37 3.37 0 0 0 3.356-3.355V45.75H40.18l-.031.137a3.008 3.008 0 0 1-2.932 2.344h-8.85a3.008 3.008 0 0 1-2.939-2.35l-.031-.131H1.998v4.067a3.371 3.371 0 0 0 3.354 3.355h54.873v2H5.353z"/><path style="fill:#f15953" d="M23.869 1h17.846v18.883H23.869z"/><path style="fill:#242423" d="M23.868 20.882c-.262 0-.52-.106-.707-.291a1.007 1.007 0 0 1-.293-.708V1a1 1 0 0 1 .293-.707c.188-.187.445-.293.707-.293h17.846c.268 0 .518.104.707.293.189.189.293.44.293.707v18.883a.992.992 0 0 1-.293.705.991.991 0 0 1-.707.293H23.868v.001zm17.846-.998v-1 1zm-16.848-1h15.848V2.001H24.866v16.883z"/><path style="fill:#f15953" d="M30.288 10.444h5.008"/><path style="fill:#242423" d="M30.287 11.443a1 1 0 1 1 0-2h5.008a1 1 0 1 1 0 2h-5.008zM18.53 34.559a1 1 0 0 1-.999-1 1 1 0 0 1 .999-1.002h28.52a1.002 1.002 0 0 1 0 2.002H18.53z"/></svg>