<svg xmlns="http://www.w3.org/2000/svg" width="18.07" height="18.07" viewBox="0 0 18.07 18.07"><path fill="#000" d="M10.912 14.493a3.6 3.6 0 0 1 .082-.764l-4.667-2.4A3.578 3.578 0 1 1 3.579 5.46v1.7a1.877 1.877 0 1 0 1.664 2.747.845.845 0 0 1 .035-.077l.021-.038a1.867 1.867 0 0 0 0-1.514l-.019-.034a1.174 1.174 0 0 1-.033-.073A1.877 1.877 0 0 0 3.582 7.16V5.461a3.569 3.569 0 0 1 2.75 1.289l4.665-2.4a3.582 3.582 0 0 1 3.5-4.342v1.7a1.878 1.878 0 0 0-1.715 2.642l.016.03.033.072a1.878 1.878 0 1 0 1.666-2.744v-1.7a3.579 3.579 0 1 1-2.749 5.869l-4.667 2.4a3.588 3.588 0 0 1 0 1.525l4.667 2.405a3.568 3.568 0 0 1 2.749-1.288v1.7a1.88 1.88 0 0 0-1.664 1.01q-.016.04-.035.078l-.018.033a1.878 1.878 0 1 0 1.717-1.121v-1.7a3.578 3.578 0 1 1-3.578 3.578z"/></svg>