<svg xmlns="http://www.w3.org/2000/svg" width="18.07" height="18.07" viewBox="0 0 18.07 18.07"><path fill="#000" d="M6.306 18.067a2.669 2.669 0 0 1-2.669-2.668v-.97H2.67a2.668 2.668 0 0 1-2.669-2.667V8.124A2.668 2.668 0 0 1 2.67 5.456h.969V2.672A2.666 2.666 0 0 1 6.307.004h5.458a2.667 2.667 0 0 1 2.668 2.668V5.46h.969a2.669 2.669 0 0 1 2.669 2.668v3.638a2.668 2.668 0 0 1-2.669 2.667h-.968v.97a2.668 2.668 0 0 1-2.669 2.668zm-.969-2.668a.974.974 0 0 0 .969.97h5.457a.973.973 0 0 0 .969-.97v-3.637a.971.971 0 0 0-.969-.968H6.306v-1.7h5.457a2.669 2.669 0 0 1 2.669 2.668v.97h.968a.975.975 0 0 0 .968-.969V8.125a.973.973 0 0 0-.968-.969H2.669a.97.97 0 0 0-.969.969v3.638a.972.972 0 0 0 .969.969h.967v-.97a2.67 2.67 0 0 1 2.669-2.668v1.7a.973.973 0 0 0-.969.968v1.898zm7.394-9.943V2.672a.969.969 0 0 0-.968-.969H6.305a.97.97 0 0 0-.968.969V5.46z"/></svg>