<svg xmlns="http://www.w3.org/2000/svg" width="18.07" height="18.07" viewBox="0 0 18.07 18.07"><path fill="#fff" d="M1.328 16.743a4.538 4.538 0 0 1 0-6.414l3.982-3.98c.042-.045.067-.067.075-.076a4.5 4.5 0 0 1 6.367.064 1 1 0 1 1-1.429 1.4 2.492 2.492 0 0 0-1.786-.751 2.46 2.46 0 0 0-1.741.707c-.032.032-.032.03-.051.051l-4 4a2.535 2.535 0 0 0 3.586 3.584l.5-.5a1 1 0 1 1 1.416 1.413l-.5.5a4.521 4.521 0 0 1-3.2 1.326h-.019a4.52 4.52 0 0 1-3.2-1.324zm4.995-5.007a1 1 0 0 1 1.428-1.4 2.5 2.5 0 0 0 3.527.044l.051-.051 4-4a2.538 2.538 0 0 0-1.794-4.331 2.51 2.51 0 0 0-1.791.744l-.5.5a1.001 1.001 0 1 1-1.416-1.416l.5-.5a4.536 4.536 0 1 1 6.418 6.413l-3.98 3.981c-.044.045-.068.067-.081.079a4.5 4.5 0 0 1-3.139 1.282h-.018a4.481 4.481 0 0 1-3.205-1.345z"/></svg>