<svg xmlns="http://www.w3.org/2000/svg" width="16.518" height="11.779" viewBox="0 0 16.518 11.779"><path d="M-241.906-814.207c0-.226-.01-.421-.01-.592s0-.353-.019-.559-.032-.44-.057-.7-.055-.5-.088-.727-.066-.434-.1-.626a2.425,2.425,0,0,0-.234-.631,1.989,1.989,0,0,0-.4-.511,2.194,2.194,0,0,0-.543-.369,2.048,2.048,0,0,0-.6-.173q-1.024-.1-2.573-.155t-3.616-.058q-2.068,0-3.616.058c-1.034.039-1.89.091-2.574.155a2.024,2.024,0,0,0-.6.173,2.131,2.131,0,0,0-.541.369,2.514,2.514,0,0,0-.4.511,1.858,1.858,0,0,0-.223.631,5.288,5.288,0,0,0-.125.626c-.033.228-.061.469-.086.727s-.047.489-.058.7-.02.394-.02.559-.005.366-.009.592-.011.486-.011.783,0,.561.011.794.009.431.009.6,0,.352.02.557.031.44.058.7.053.482.086.715.069.446.106.638a2.565,2.565,0,0,0,.233.62,1.877,1.877,0,0,0,.406.52,2.445,2.445,0,0,0,.541.351,2,2,0,0,0,.6.174c.684.076,1.54.135,2.574.174s2.237.057,3.616.057,2.585-.019,3.616-.057,1.89-.1,2.573-.174a2.02,2.02,0,0,0,.6-.174,2.528,2.528,0,0,0,.543-.351,2.389,2.389,0,0,0,.394-.52,1.9,1.9,0,0,0,.223-.62,4.805,4.805,0,0,0,.125-.638c.033-.233.061-.47.088-.715s.045-.492.057-.7.019-.392.019-.557.006-.37.01-.6.011-.5.011-.794S-241.9-813.983-241.906-814.207Zm-5.629.995a.352.352,0,0,1-.144.142L-251-811a.33.33,0,0,1-.109.055.458.458,0,0,1-.11.013.357.357,0,0,1-.1-.013.886.886,0,0,1-.1-.041.405.405,0,0,1-.163-.144.406.406,0,0,1-.054-.211v-4.153a.417.417,0,0,1,.054-.212.479.479,0,0,1,.163-.155.445.445,0,0,1,.213-.055.407.407,0,0,1,.211.067l3.321,2.083a.356.356,0,0,1,.144.144.4.4,0,0,1,.047.2A.445.445,0,0,1-247.535-813.212Z" transform="translate(258.413 819.304)" fill="#fff"/></svg>