<svg xmlns="http://www.w3.org/2000/svg" width="19.323" height="19.326" viewBox="0 0 19.323 19.326"><path d="M63.037-501.629a5.727,5.727,0,0,1-5.727-5.727v-7.871a5.728,5.728,0,0,1,5.727-5.729h7.875v0a5.727,5.727,0,0,1,5.721,5.729v7.871a5.727,5.727,0,0,1-5.721,5.727Zm-3.316-13.645v8.055A3.225,3.225,0,0,0,62.941-504H71a3.222,3.222,0,0,0,3.217-3.219v-8.055A3.221,3.221,0,0,0,71-518.492H62.941A3.224,3.224,0,0,0,59.721-515.274Zm2.42,4.029a4.83,4.83,0,0,1,4.829-4.832,4.831,4.831,0,0,1,4.834,4.832,4.831,4.831,0,0,1-4.834,4.833A4.83,4.83,0,0,1,62.141-511.245Zm1.7,0a3.134,3.134,0,0,0,3.131,3.133,3.137,3.137,0,0,0,3.136-3.133,3.137,3.137,0,0,0-3.136-3.135A3.134,3.134,0,0,0,63.84-511.245Zm7-5.02a1.125,1.125,0,0,1,1.121-1.121,1.128,1.128,0,0,1,1.129,1.121,1.128,1.128,0,0,1-1.129,1.129A1.125,1.125,0,0,1,70.842-516.265Z" transform="translate(-57.31 520.955)" fill="#fff"/></svg>